SplineFontDB: 3.2
FontName: DotsnLines
FullName: Dots n Lines
FamilyName: Dots n Lines
Weight: Regular
Copyright: Copyright (c) 2025, Farran De Tao / Phlowyd Designs
UComments: "2025-3-10: Created with FontForge (http://fontforge.org)"
FontLog: "2025 March 12:+AAoA-Version 1.0.+AAoA-Completed all letters for English and NewEng (my version).+AAoACgAA-2025 March 12:+AAoA-Version 1.1+AAoA-Completed all kerning, in classes for the majority, and one set of pairs for thorn/yogh.+AAoA-Adjusted Ascent height, hopefully this will fix the over-sized-ness that all of my fonts seem to suffer from.+AAoACgAA-Version 1.11+AAoA-Testing changing height again."
Version: 001.110
ItalicAngle: 0
UnderlinePosition: -91.6667
UnderlineWidth: 45.8333
Ascent: 800
Descent: 200
InvalidEm: 0
LayerCount: 2
Layer: 0 0 "Back" 1
Layer: 1 0 "Fore" 0
XUID: [1021 852 -1484542570 26393]
StyleMap: 0x0040
FSType: 0
OS2Version: 0
OS2_WeightWidthSlopeOnly: 0
OS2_UseTypoMetrics: 1
CreationTime: 1741601839
ModificationTime: 1741773023
PfmFamily: 65
TTFWeight: 700
TTFWidth: 6
LineGap: 82
VLineGap: 0
OS2TypoAscent: 0
OS2TypoAOffset: 1
OS2TypoDescent: 0
OS2TypoDOffset: 1
OS2TypoLinegap: 82
OS2WinAscent: 0
OS2WinAOffset: 1
OS2WinDescent: 0
OS2WinDOffset: 1
HheadAscent: 0
HheadAOffset: 1
HheadDescent: 0
HheadDOffset: 1
OS2Vendor: 'PfEd'
MacStyle: 1
Lookup: 258 0 0 "Kerning" { "Kerning-2-Pairs" [150,15,2] "Kerning-1-Classes" [150,15,4] } ['kern' ('DFLT' <'dflt' > 'cyrl' <'dflt' > 'grek' <'dflt' > 'latn' <'dflt' > ) ]
MarkAttachClasses: 1
DEI: 91125
KernClass2: 14 12 "Kerning-1-Classes"
 3 A a
 3 V v
 7 T Y t y
 17 Ccedilla ccedilla
 3 Q q
 7 Phi phi
 11 Thorn thorn
 15 uniA74E uniA74F
 3 O o
 3 U u
 15 uni0222 uni0223
 15 uni0195 uni01F6
 3 L l
 3 J j
 3 A a
 5 AE ae
 7 T Y t y
 7 Phi phi
 15 uni0427 uni0447
 15 uniA74E uniA74F
 3 O o
 3 U u
 5 OE oe
 15 uni0222 uni0223

StartChar: A
Encoding: 65 65 0
Width: 862
VWidth: 916
Flags: WO
LayerCount: 2
Fore
SplineSet
463 733 m 0
 466 729 483 692 486 684 c 0
 497 643 555 500 577 458 c 0
 585 445 590 427 592 422 c 0
 605 380 694 221 718 194 c 0
 726 185 734 170 742 160 c 0
 750 147 769 125 783 111 c 0
 805 88 809 82 810 69 c 0
 810 67 810 66 810 64 c 0
 810 55 808 54 796 42 c 0
 788 34 783 30 783 27 c 0
 783 25 l 0
 783 24 783 23 783 22 c 0
 783 21 782 20 780 20 c 0
 778 20 777 21 775 22 c 0
 773 23 771 22 769 22 c 0
 765 22 763 21 762 20 c 0
 761 18 757 15 753 15 c 0
 748 15 747 14 747 9 c 0
 747 1 743 1 728 1 c 0
 715 1 710 -2 706 -8 c 0
 703 -12 698 -13 693 -13 c 0
 689 -13 674 0 656 18 c 0
 624 50 608 70 556 148 c 0
 520 201 473 296 435 392 c 0
 403 470 396 484 390 484 c 0
 388 484 387 483 382 478 c 0
 377 470 374 465 374 462 c 0
 374 458 366 434 358 417 c 0
 350 403 342 379 338 368 c 0
 336 362 333 354 330 350 c 0
 325 344 308 309 308 304 c 0
 308 295 292 258 283 247 c 0
 269 229 251 197 248 184 c 0
 245 174 230 154 188 98 c 0
 180 88 165 70 152 60 c 0
 137 48 126 39 123 35 c 0
 118 29 116 24 103 24 c 0
 91 24 90 22 85 17 c 0
 82 13 72 13 68 13 c 0
 66 13 66 13 64 14 c 2
 55 17 l 1
 64 26 l 2
 70 32 76 41 77 46 c 0
 78 52 80 60 88 68 c 0
 97 76 128 129 156 183 c 0
 198 265 229 351 265 437 c 0
 278 469 298 509 306 537 c 0
 324 601 328 628 328 637 c 0
 328 642 334 652 340 661 c 0
 346 670 352 679 352 682 c 0
 352 686 358 689 368 691 c 0
 378 693 389 697 394 702 c 0
 398 707 406 710 411 710 c 0
 415 710 423 714 440 722 c 0
 457 731 461 733 463 733 c 0
452 172 m 2
 457 172 463 166 475 155 c 0
 485 146 500 126 502 116 c 0
 504 110 504 109 504 106 c 0
 504 100 501 96 483 79 c 0
 471 68 450 54 438 46 c 0
 426 38 421 33 412 28 c 0
 400 20 396 20 392 20 c 0
 380 20 362 19 350 19 c 0
 339 19 330 25 328 27 c 0
 325 30 319 42 318 48 c 0
 317 56 314 62 314 70 c 0
 314 74 315 80 317 83 c 0
 325 101 317 96 335 105 c 0
 354 115 369 131 397 142 c 0
 406 146 414 156 422 161 c 0
 430 166 438 171 444 172 c 0
 446 173 450 174 452 172 c 2
EndSplineSet
Validated: 1
EndChar

StartChar: B
Encoding: 66 66 1
Width: 752
VWidth: 916
Flags: W
HStem: 4 87<179 429.497> 646 87<197.493 397.739>
VStem: 527 151<482.223 563.701> 555 145<164.809 276.198>
LayerCount: 2
Fore
SplineSet
256 646 m 4xe0
 193 646 81 624 58 624 c 6
 57 624 l 6
 55 624 55 626 55 628 c 4
 55 633 61 639 64 643 c 4
 77 661 137 687 155 695 c 6
 169 701 l 6
 189 709 206 715 229 719 c 4
 239 721 257 725 269 728 c 4
 287 732 336 733 374 733 c 4
 414 733 426 733 482 719 c 4
 564 699 632 660 655 618 c 4
 677 583 678 548 678 547 c 4xe0
 678 534 674 510 650 472 c 4
 637 453 596 423 596 408 c 4
 596 407 597 409 597 408 c 4
 599 396 605 396 618 392 c 4
 646 384 682 352 686 333 c 4
 699 286 700 287 700 261 c 4
 700 177 676 140 588 83 c 4
 587 82 517 49 457 32 c 4
 421 22 342 9 191 4 c 4
 136 3 122 -1 87 -2 c 4
 82 -2 77 -4 72 -4 c 4
 63 -4 55 7 55 12 c 4
 55 26 103 53 143 73 c 5
 179 91 l 5
 283 93 l 6
 340 95 395 98 405 100 c 4
 423 105 427 104 488 109 c 4
 543 114 555 115 555 173 c 4xd0
 555 215 542 274 524 288 c 4
 498 310 453 324 435 324 c 4
 416 324 365 312 354 312 c 4
 344 312 343 313 343 321 c 4
 343 326 345 333 349 338 c 4
 357 348 426 383 458 394 c 4
 495 407 511 427 523 472 c 4
 526 481 527 490 527 499 c 4
 527 534 511 562 482 590 c 4
 454 616 326 646 256 646 c 4xe0
97 283 m 5
 71 286 68 286 68 312 c 4
 68 341 92 362 148 391 c 4
 185 410 200 416 209 417 c 5
 210 418 l 5
 227 418 252 384 252 366 c 4
 252 358 246 348 234 335 c 4
 212 312 206 308 165 294 c 4
 143 286 134 283 123 283 c 4
 119 283 117 283 112 284 c 5
 112 284 104 283 99 283 c 6
 97 283 l 5
EndSplineSet
Validated: 1
EndChar

StartChar: C
Encoding: 67 67 2
Width: 756
VWidth: 916
Flags: W
HStem: -4 111<307.357 628.472> 634 98<489.62 655.922>
VStem: 55 147<201.773 420.696>
LayerCount: 2
Fore
SplineSet
464 -4 m 6
 438 -4 l 6
 401 -4 364 -3 328 -1 c 4
 226 3 217 3 170 29 c 4
 119 57 92 85 75 127 c 4
 58 169 55 182 55 233 c 4
 55 301 55 354 68 395 c 4
 83 443 102 486 119 504 c 4
 127 513 139 527 145 536 c 4
 148 539 285 692 478 724 c 4
 509 729 552 732 587 732 c 4
 610 732 629 731 638 728 c 4
 657 723 688 710 688 702 c 4
 688 688 646 634 614 634 c 4
 592 634 564 646 486 646 c 4
 409 646 371 633 349 624 c 4
 308 606 253 549 239 523 c 4
 215 477 202 418 202 340 c 4
 202 207 224 219 224 201 c 4
 224 197 233 183 246 170 c 4
 300 111 383 107 462 107 c 6
 485 107 l 6
 512 107 696 100 698 100 c 4
 702 100 702 99 702 96 c 4
 702 83 665 33 664 32 c 4
 658 26 651 23 629 5 c 4
 618 -4 590 -5 558 -5 c 4
 527 -5 492 -4 464 -4 c 6
EndSplineSet
Validated: 1
EndChar

StartChar: Eth
Encoding: 208 208 3
Width: 884
VWidth: 916
Flags: W
HStem: 2 80<216.234 557.947> 307 115<129.916 453.891> 636 90<153.112 374.749> 647 86<167.885 502.023>
VStem: 656 174<226.098 490.039>
LayerCount: 2
Fore
SplineSet
398 647 m 4xd8
 392 647 157 636 154 636 c 4
 108 636 98 658 98 659 c 4
 98 665 110 673 110 673 c 6
 152 721 223 725 248 726 c 4xe8
 280 728 329 733 377 733 c 4
 482 733 577 733 682 672 c 4
 747 634 788 569 788 567 c 4
 790 555 830 494 830 398 c 4
 830 357 826 294 816 248 c 4
 813 235 807 224 802 211 c 4
 780 153 757 141 711 105 c 4
 678 79 618 38 540 18 c 4
 538 17 463 2 362 2 c 6
 317 2 l 6
 288 2 266 0 253 0 c 4
 211 0 126 8 113 13 c 4
 107 16 104 18 104 23 c 4
 104 36 148 73 184 86 c 5
 215 97 l 5
 294 88 l 6
 339 83 373 82 408 82 c 4
 480 82 515 88 548 96 c 4
 579 102 600 103 620 155 c 4
 633 193 644 198 652 280 c 4
 654 303 656 325 656 344 c 4
 656 413 645 498 603 549 c 4
 580 578 511 647 398 647 c 4xd8
502 414 m 6
 527 414 528 405 528 398 c 4
 528 393 528 390 526 386 c 4
 520 372 487 355 482 350 c 4
 473 344 468 335 458 330 c 4
 448 325 421 307 353 307 c 4
 276 307 122 317 102 317 c 4
 94 317 85 315 77 315 c 4
 69 315 55 316 55 329 c 4
 55 369 150 411 156 413 c 4
 175 418 209 422 258 422 c 4
 277 422 486 414 488 414 c 6
 502 414 l 6
EndSplineSet
Validated: 1
EndChar

StartChar: Thorn
Encoding: 222 222 4
Width: 830
VWidth: 916
Flags: W
HStem: 167 99<112.685 619.033> 492 86<132.226 546.885> 622 129<114.229 187.745>
VStem: 625 153<296.332 412.385>
LayerCount: 2
Fore
SplineSet
202 762 m 0
 215 762 243 758 243 720 c 0
 243 652 151 622 118 622 c 0
 104 622 60 626 60 662 c 0
 60 670 64 679 68 687 c 0
 76 702 92 712 105 722 c 0
 119 733 133 746 151 751 c 0
 166 756 184 762 202 762 c 0
338 578 m 0
 341 578 452 576 453 576 c 0
 491 576 532 577 567 577 c 0
 611 577 646 568 669 555 c 0
 707 533 744 502 766 464 c 0
 772 451 778 436 778 398 c 0
 778 366 773 328 764 311 c 0
 758 300 749 283 744 275 c 0
 731 249 681 208 668 203 c 0
 615 181 633 175 500 169 c 0
 487 168 474 168 462 168 c 0
 436 168 412 169 388 169 c 0
 350 169 291 167 242 167 c 0
 205 167 76 171 74 171 c 0
 63 171 63 170 63 170 c 0
 59 170 55 175 55 180 c 0
 55 181 65 214 115 247 c 0
 137 261 136 260 142 262 c 0
 154 265 227 266 247 266 c 0
 325 266 400 260 478 260 c 0
 479 260 577 261 599 267 c 0
 612 271 625 275 625 331 c 0
 625 367 615 411 573 449 c 0
 529 490 507 486 469 490 c 1
 449 492 433 492 419 492 c 0
 407 492 397 492 384 492 c 0
 351 492 314 491 281 491 c 0
 209 491 94 495 92 495 c 0
 87 495 79 493 74 493 c 0
 70 493 63 494 63 503 c 0
 63 521 88 536 102 544 c 0
 149 567 204 578 338 578 c 0
74 15 m 0
 74 47 161 119 206 119 c 0
 208 119 209 119 210 119 c 2
 222 115 l 2
 230 112 230 116 238 112 c 0
 250 107 270 96 270 77 c 0
 270 69 266 60 262 52 c 0
 252 34 177 -18 160 -23 c 0
 154 -25 147 -26 141 -26 c 0
 140 -26 99 -24 88 -15 c 0
 79 -7 74 3 74 15 c 0
EndSplineSet
Validated: 1
EndChar

StartChar: uni01F6
Encoding: 502 502 5
Width: 1182
VWidth: 916
Flags: W
HStem: -3 93<838.29 959.14> 306 138<336.735 429.408> 730 20G<1080.5 1092.5> 730 11G<167 184 1080.5 1092.5>
VStem: 58 166<43.197 660.433> 533 176<212.644 682> 966 162<93.969 664.484>
LayerCount: 2
Fore
SplineSet
972 294 m 6xee
 972 334 966 483 966 576 c 6
 966 632 l 6
 966 643 962 654 962 665 c 4
 962 668 963 670 963 673 c 4
 966 697 965 699 988 713 c 4
 1016 731 1074 750 1087 750 c 4
 1098 750 1101 740 1112 738 c 4
 1118 736 1122 731 1122 712 c 4
 1124 653 1128 668 1128 600 c 6
 1128 567 l 6
 1128 529 1127 488 1127 450 c 6
 1127 430 l 6
 1127 383 1128 329 1128 282 c 4
 1128 244 1127 210 1123 188 c 4
 1120 173 1116 146 1114 128 c 4
 1109 91 1103 80 1080 68 c 4
 1029.70383139 40.0576841038 977.720962708 15.180240677 937 5 c 5
 908 1 876 -3 844 -3 c 4
 782 -3 771 2 720 23 c 4
 684 38 637 62 618 77 c 4
 581.970154097 105.823876722 533 205.406111441 533 322 c 4
 533 339 535 355 535 372 c 6
 535 390 l 6
 535 398 533 404 533 412 c 4
 533 454 537 488 537 547 c 6
 537 682 l 5
 548 689 l 5
 574 711 640 735 672 735 c 4
 691 735 690 734 698 729 c 4
 702 726 715 702 715 682 c 4
 715 667 711 642 711 586 c 6
 711 578 l 6
 711 573 712 566 712 561 c 4
 712 511 711 449 709 425 c 5
 709 408 l 6
 709 371 711 292 714 286 c 4
 716 281 719 262 722 244 c 4
 743 100 929 90 931 90 c 4
 963 90 967 110 972 268 c 5
 972 294 l 6xee
218 435 m 4
 218 395 224 413 224 301 c 4
 224 205 221 77 217 64 c 4
 211.330948427 45.1031614221 171.297143211 14.9728574086 170 14 c 4
 149 -4 91 -5 90 -5 c 6
 81 -5 l 5
 58 -4 l 5
 58 132 l 6
 58 224 55 261 55 327 c 6
 55 329 l 6
 55 333 58 671 64 683 c 4
 76 708 156 741 178 741 c 6
 180 741 l 6
 188 741 192 736 200 730 c 6xde
 212 719 l 5
 221 628 l 5
 221 550 218 476 218 435 c 4
425 444 m 6
 454.730488454 444 484 420.249323643 484 395 c 4
 484 372 474 359 441 335 c 4
 408 312 394 306 344 306 c 4
 331 306 324 307 307 313 c 4
 279 324 270 334 270 362 c 4
 270 403 373 443 422 444 c 5
 425 444 l 6
EndSplineSet
Validated: 524289
EndChar

StartChar: uni01A9
Encoding: 425 425 6
Width: 948
VWidth: 916
Flags: W
HStem: -11 110<417.312 775.774> 2 112<182.681 375.526> 9 98<639.703 870.576> 624 96<315 676.675>
LayerCount: 2
Fore
SplineSet
418 720 m 6x10
 682.654161178 720 797.730454207 746 811 746 c 6
 818 746 l 5
 851 745 861 738 861 706 c 4
 861 694 849 690 834 678 c 4
 820 667 801 657 772 647 c 4
 755 642 489 623 444 623 c 4
 436 623 428 624 420 624 c 6
 380 624 l 6
 342 624 316 623 315 622 c 5
 315 620 319 616 324 612 c 4
 364 584 583 384 583 352 c 4
 583 334 470 300 458 299 c 5
 429 299 240 482 142 559 c 4
 124 572 62 617 61 618 c 4
 57 620 55 621 55 624 c 4
 55 628 58 633 66 638 c 4
 78 647 107 678 127 689 c 4
 145 700 161 706 183 714 c 5
 215 721 l 5
 308 720 l 5
 418 720 l 6x10
587 99 m 6x90
 589 99 732 106 778 106 c 6
 793 106 l 6
 803 106 816 107 827 107 c 4
 854.026666667 107 860 107 885 82 c 4
 891 76 893 71 893 66 c 4
 893 42 850 12 833 9 c 4x30
 783 -4 774 -7 682 -11 c 4x90
 596 -15 505 -18 413 -18 c 4
 389 -18 154 -16 98 2 c 4
 90 5 77 11 77 22 c 4
 77 28 80 36 92 44 c 4
 121 64 224 114 226 114 c 6
 228 114 l 5x50
 246 112 433 99 565 99 c 6
 587 99 l 6x90
EndSplineSet
Validated: 524289
EndChar

StartChar: uni0427
Encoding: 1063 1063 7
Width: 880
VWidth: 916
Flags: W
HStem: 216 114<390.772 629.875> 605 139<701.476 793.498>
VStem: 55 178<416.096 687.326> 628 174<12.6664 197.922> 632 179<81.4929 219>
LayerCount: 2
Fore
SplineSet
58 591 m 6xe8
 58 631 55 659 55 660 c 4
 55 672 55 673 88 696 c 4
 119 718 184 744 192 744 c 4
 204 744 218 740 219 735 c 4
 221 729 233 712 233 663 c 4
 233 655 232 648 232 637 c 4
 231 605 231 559 230 540 c 4
 228 525 228 512 228 499 c 4
 228 417 269 397 325 374 c 4
 397 345 468 330 545 330 c 4
 547 330 705 332 738 343 c 4
 751 347 762 349 770 349 c 4
 783 349 790 344 798 333 c 4
 811 313 808 287 810 264 c 4
 810 256 811 250 811 242 c 4xe8
 811 204 804 168 802 130 c 4
 800 94 803 36 798 23 c 4
 793 10 702 -17 684 -19 c 4
 681 -19 681 -20 678 -20 c 4
 664 -20 642 -18 642 -18 c 6
 633 -17 628 -15 628 78 c 4xf0
 628 153 632 197 632 198 c 4
 632 216 633 219 610 219 c 6
 595 219 l 5
 567 217 537 216 505 216 c 4
 437 216 368 220 336 228 c 4
 274 241 164 275 102 333 c 4
 83 351 72 376 64 402 c 4
 56 430 58 461 57 490 c 5
 57 510 l 6
 57 534 58 559 58 583 c 6
 58 591 l 6xe8
665 577 m 4
 632 577 605 595 605 651 c 4
 605 653 604 653 604 655 c 4
 604 711 723 742 738 744 c 5
 744 744 l 6
 781 744 786 736 792 726 c 4
 797 718 804 707 808 702 c 4
 820 689 827 670 827 655 c 4
 827 646 825 638 820 633 c 4
 812 627 767 605 762 605 c 4
 761 605 697 577 665 577 c 4
EndSplineSet
Validated: 1
EndChar

StartChar: uni021C
Encoding: 540 540 8
Width: 835
VWidth: 916
Flags: W
HStem: -5 102<122.384 434.938> -5 88<167.16 594.906> 306 93<406.974 523.359> 650 88<290.574 513.564>
VStem: 633 150<151.788 211>
LayerCount: 2
Fore
SplineSet
258 -5 m 5xb8
 160 -5 l 6
 142 -5 119 -5 69 0 c 4
 60 1 55 4 55 9 c 4
 55 14 60 22 70 33 c 5
 115 70 l 6
 123 76 154 97 167 97 c 4xb8
 170 97 198 83 400 83 c 6
 452 83 l 6x78
 602 83 605 92 618 112 c 4
 623 120 633 139 633 154 c 4
 633 183 608 212 594 230 c 4
 571 257 564 263 531 281 c 4
 490.551724138 300.034482759 490.551724138 300.034482759 413 306 c 4
 381 309 346 308 345 326 c 4
 345 336 376 360 408 378 c 4
 455 404 446 395 478 399 c 4
 553 407 564 410 582 422 c 4
 605 437 618 470 618 508 c 6
 618 509 l 6
 618 537 613 546 573 588 c 4
 555.760780651 605.239219349 500.098476062 650 428 650 c 6
 414 650 l 6
 394 650 309 644 271 636 c 4
 188 618 162 598 112 598 c 4
 100 598 84 600 84 612 c 4
 84 627 116 648 169 674 c 4
 229 702 263 711 313 721 c 4
 322 723 412 738 454 738 c 6
 473 738 l 6
 572 738 650 711 723 643 c 4
 745 624 772 598 772 547 c 6
 772 538 l 5
 768 496 721 438 673 402 c 4
 659 391 640 372 640 367 c 4
 640 363 645 360 651 358 c 4
 699.787084688 342.144197476 760.20339046 276.389828621 775 232 c 4
 780 224 783 214 783 208 c 4
 783 158 693 53 627 27 c 4
 559 -1 425 -4 408 -4 c 6
 398 -4 l 5
 258 -5 l 5xb8
EndSplineSet
Validated: 524289
EndChar

StartChar: uniA7B0
Encoding: 42928 42928 9
Width: 822
VWidth: 916
Flags: W
HStem: 721 20G<745 759>
VStem: 585 176<45.2878 293.993> 592 173<428.52 684.262>
LayerCount: 2
Fore
SplineSet
579 -6 m 4xc0
 581 -6 585 97 585 148 c 6
 585 180 l 6xc0
 585 199 586 229 586 252 c 4
 586 285 585 294 582 294 c 4
 580 294 475 208 443 185 c 4
 421 171 400 156 378 142 c 5
 299 87 l 5
 225 31 172 -3 120 -4 c 5
 102 -4 l 6
 70 -4 55 0 55 5 c 4
 55 13 106 72 134 87 c 4
 166 105 149 97 221 146 c 4
 313 207 380 266 472 340 c 4
 527 385 536 394 574 432 c 4
 592 451 590 463 592 560 c 4
 593 612 594 666 606 678 c 4
 620 692 647 702 656 706 c 4
 698 719 734 741 756 741 c 4
 762 741 766 740 769 737 c 5
 768 687 l 5
 768 621 765 497 765 495 c 4
 765 490 764 485 764 480 c 4
 764 443 765 405 765 368 c 6
 765 322 l 6xa0
 765 285 765 237 761 124 c 5
 761 84 l 6
 761 66 761 51 757 45 c 4
 753 39 744 39 738 35 c 4
 718 25 641 -12 588 -12 c 4
 579 -12 578 -8 578 -8 c 6
 578 -7 578 -6 579 -6 c 4xc0
228 730 m 4
 275 730 322 684 324 643 c 5
 324 642 l 6
 324 596 220 543 203 538 c 4
 190 534 174 532 160 532 c 4
 123 532 107 547 93 561 c 4
 80 574 60 589 59 608 c 5
 59 609 l 6
 59 653 152 716 184 724 c 4
 197 728 215 730 228 730 c 4
EndSplineSet
Validated: 1
EndChar

StartChar: Eng
Encoding: 330 330 10
Width: 797
VWidth: 916
Flags: W
HStem: -13 82<401 549.96> 724 19G<641.5 656.5 666.5 680.5>
VStem: 58 151<45.0015 361.362> 60 170<167.076 501> 568 156<83.5 171>
LayerCount: 2
Fore
SplineSet
138 711 m 0xd8
 168 727 184 735 206 735 c 0
 212 735 243 717 256 706 c 0
 284 683 284 684 416 537 c 0
 440 509 464 479 488 451 c 2
 528 408 l 1
 640 293 640 291 682 238 c 0
 710 202 724 185 724 157 c 0
 724 144 721 112 689 84 c 0
 653 52 654 52 597 28 c 0
 573 18 548 6 522 1 c 0
 489 -7 444 -13 412 -13 c 0
 390 -13 360 -9 334 11 c 0
 317 24 298 67 298 84 c 2
 298 87 l 1
 303 110 390 173 418 173 c 0
 445 173 435 124 453 101 c 0
 466 84 503 69 527 69 c 0
 532 69 568 70 568 97 c 0
 568 139 519 191 395 318 c 0
 367 346 345 371 345 372 c 0
 345 373 324 400 288 442 c 0
 287 443 234 501 230 501 c 1
 230 500 l 1xd8
 217 432 224 147 209 49 c 0
 209 47 206 45 202 45 c 0
 160 25 104 -4 72 -4 c 2
 70 -4 l 1
 55 -2 l 1
 56 29 l 1
 58 46 58 52 58 63 c 0xe8
 60 131 60 200 60 268 c 2
 60 280 l 2
 60 329 60 371 60 418 c 2
 60 453 l 2
 60 495 63 547 63 582 c 2
 63 596 l 2
 63 604 62 612 62 618 c 0
 62 650 66 668 72 668 c 0
 78 668 85 683 138 711 c 0xd8
499 633 m 0
 499 695 601 737 606 737 c 0
 623 742 627 742 656 744 c 0
 657 743 659 742 661 742 c 0
 663 742 665 743 668 743 c 2
 669 743 l 1
 692 740 697 742 711 730 c 0
 719 725 740 699 742 691 c 0
 744 683 743 678 743 673 c 0
 743 670 742 641 700 603 c 0
 699 602 636 560 598 560 c 0
 597 560 529 566 506 610 c 0
 501 621 499 628 499 633 c 0
EndSplineSet
Validated: 1
EndChar

StartChar: uniA74E
Encoding: 42830 42830 11
Width: 1215
VWidth: 916
Flags: W
HStem: -13 127<778.998 919.647> -3 145<295.574 387.937> 604 143<816.703 881.663> 607 131<295.454 416.719>
VStem: 55 132<262.587 469.811> 1022 139<274.624 425.572>
LayerCount: 2
Fore
SplineSet
762 -13 m 2xac
 650 -13 606 36 523 128 c 1
 508 105 468 49 407 26 c 0
 376 14 334 -3 274 -3 c 0
 206 -3 133 28 86 142 c 0
 59 204 55 306 55 308 c 0
 55 316 55 325 55 325 c 0
 55 357 57 403 69 445 c 0
 87 513 98 561 188 648 c 0
 228 686 302 738 408 738 c 0x5c
 421 738 511 736 583 670 c 0
 600 656 612 637 624 618 c 0
 629 610 629 605 637 591 c 1
 646 600 664 622 675 632 c 0
 676 633 757 710 835 732 c 0
 858 738 885 747 909 747 c 0
 913 747 914 747 918 747 c 0
 1075 733 1161 587 1161 422 c 0
 1161 299 1109 155 1059 97 c 0
 1021 55 988 26 900 3 c 0
 858 -8 814 -13 770 -13 c 2
 762 -13 l 2xac
1000 178 m 0
 1020 215 1022 309 1022 310 c 2
 1022 329 l 2
 1022 393 976 509 898 570 c 0
 878 585 857 604 825 604 c 0
 778 604 726 542 714 527 c 0
 701 510 692 491 683 473 c 0
 671 449 665 422 655 398 c 0
 647 378 628 338 628 338 c 1
 623 324 624 324 610 292 c 1
 615 295 618 295 622 295 c 0
 630 295 636 289 647 278 c 0
 666 260 731 164 784 132 c 1
 811 123 834 114 872 114 c 0xac
 882 114 968 116 1000 178 c 0
187 399 m 0
 187 292 198 275 230 226 c 0
 244 204 263 183 292 166 c 0
 311 155 331 143 353 142 c 1
 356 142 l 2
 398 142 423 174 455 210 c 0
 483 248 513 311 514 312 c 0
 547 390 548 389 553 400 c 1
 552 401 498 505 481 528 c 0
 466 550 420 607 328 607 c 0x5c
 250 607 187 538 187 399 c 0
EndSplineSet
Validated: 1
EndChar

StartChar: uni0222
Encoding: 546 546 12
Width: 872
VWidth: 916
Flags: W
HStem: -9 88<330.753 626.759> 311 101<367.624 571.685> 718 20G<753 776.5> 723 20G<195 208>
VStem: 55 178<137.875 238.409> 61 182<491.838 695.209> 662 158<127.836 282.881>
LayerCount: 2
Fore
SplineSet
196 743 m 6xd6
 203 743 l 6
 213 743 228 743 233 725 c 4xda
 236 716 241 717 243 675 c 4xd6
 246 600 252 517 252 515 c 4
 252 497 275 476 308 459 c 4
 349 439 403 412 518 412 c 6
 530 412 l 6
 603 412 618 454 627 526 c 4
 631 554 629 577 632 610 c 4
 637 678 639 683 652 695 c 4
 684 723 748 738 758 738 c 4
 795 738 800 728 806 714 c 4
 812 701 812 690 812 680 c 6
 812 643 l 6
 812 620 810 557 807 545 c 4
 799 512 786 479 769 448 c 4
 758 426 711 390 705 386 c 4
 701 384 697 381 697 379 c 4
 697 377 704 373 717 367 c 4
 748 353 796 294 807 266 c 4
 815 244 820 219 820 196 c 4
 820 154 804 86 712 40 c 4
 710 39 647 9 528 -5 c 4
 505 -8 446 -9 404 -9 c 4
 306 -9 162 2 78 86 c 4
 60 104 55 132 55 160 c 6
 55 169 l 5xea
 57 235 117 302 154 324 c 4
 180 339 197 349 197 354 c 4
 197 365 145 378 107 414 c 4
 71 449 66 477 61 623 c 5
 61 655 l 6
 61 678 63 682 68 686 c 4
 133 738 194 743 196 743 c 6xd6
573 331 m 5
 545 322 514 311 417 311 c 6
 408 311 l 6
 389 311 371 312 348 315 c 6
 302 321 l 5
 281 301 l 6
 272 292 257 272 249 258 c 4
 236 235 233 226 233 197 c 4
 233 155 245 140 278 123 c 4
 338 92 387 79 510 79 c 6
 536 79 l 6
 615 79 619 93 628 102 c 4
 629 103 662 162 662 225 c 4
 662 274 631 296 594 318 c 6
 573 331 l 5
EndSplineSet
Validated: 1
EndChar

StartChar: Phi
Encoding: 934 934 13
Width: 847
VWidth: 916
Flags: W
HStem: 158 86<222.346 623> 490 77<233.984 468.951 469 617.764> 604 117<375.913 442.407>
VStem: 55 143<270.732 425.428> 645 148<257.687 460.8>
LayerCount: 2
Fore
SplineSet
538 692 m 2
 538 666 462 607 417 604 c 1
 413 604 l 2
 412 604 371 610 362 616 c 0
 352 622 342 633 342 645 c 0
 342 677 376 699 400 721 c 0
 401 721 431 746 463 746 c 0
 498 746 536 717 538 693 c 1
 538 692 l 2
368 564 m 4
 401 566 469 567 469 567 c 5
 609 567 l 6
 653 567 743 558 778 497 c 4
 790 474 793 421 793 335 c 4
 793 316 792 299 790 294 c 4
 782 271 757 233 746 228 c 4
 692 181 690 195 673 183 c 4
 661 175 605 167 572 162 c 4
 563 161 501 158 499 158 c 6
 486 158 l 6
 450 158 415 160 379 160 c 6
 374 160 l 6
 351 160 339 159 313 159 c 4
 311 159 185 162 161 170 c 4
 117 183 90 192 68 220 c 4
 60 229 55 261 55 298 c 4
 55 340 60 389 69 412 c 4
 77 434 133 499 171 518 c 4
 272 569 294 560 368 564 c 4
623 248 m 5
 638 266 645 272 645 350 c 4
 645 373 643 438 619 467 c 4
 607 480 565 488 468 490 c 5
 445 490 l 6
 443 490 280 489 238 472 c 4
 216 464 198 456 198 381 c 4
 198 341 204 295 217 272 c 4
 226 257 241 254 258 249 c 4
 268 246 312 242 325 242 c 4
 345 242 379 243 407 244 c 5
 476 244 l 6
 490 244 511 243 531 243 c 4
 548 243 565 243 578 244 c 6
 623 248 l 5
334 23 m 1
 336 46 406 123 463 123 c 0
 465 123 469 122 471 122 c 0
 526 116 527 83 527 82 c 0
 527 74 523 66 519 58 c 0
 513 45 464 10 463 10 c 2
 448 -1 l 2
 439 -6 430 -14 420 -17 c 0
 414 -19 405 -18 399 -18 c 0
 398 -18 357 -17 348 -9 c 0
 340 -1 334 11 334 22 c 2
 334 23 l 1
EndSplineSet
Validated: 1
EndChar

StartChar: uni0418
Encoding: 1048 1048 14
Width: 844
VWidth: 916
Flags: W
HStem: -17 21G<63 93.5> -10 21G<647 658> 567 175<144.079 240.625> 727 20G<737 744.5>
VStem: 618 174<38.6749 176.938> 618 170<70.0617 504.999>
LayerCount: 2
Fore
SplineSet
779 723 m 4x94
 780 720 788 665 788 610 c 4
 788 582 787 551 787 528 c 6
 787 515 l 6
 787 502 788 486 788 473 c 4
 788 431 785 390 785 348 c 4
 785 291 787 235 788 178 c 4x94
 788 155 788 154 792 66 c 5
 789 48 725 -4 668 -9 c 4
 663 -9 660 -10 656 -10 c 4
 638 -10 633 -5 627 3 c 4
 619 11 620 22 618 87 c 5x58
 618 191 l 6
 618 229 616 268 616 306 c 4
 616 339 617 387 618 400 c 6
 620 460 l 5
 620 500 l 6
 620 503 620 505 618 505 c 4
 614 505 608 495 596 482 c 4
 531 408 461 356 239 87 c 4
 219 64 193 21 180 13 c 4
 179 12 119 -17 68 -17 c 4
 58 -17 55 -14 55 -14 c 5
 55 -13 l 6
 55 5 93 58 115 90 c 4
 168 165 235 232 295 301 c 4
 355 369 418 435 478 503 c 4
 510 541 542 581 574 619 c 4
 596 646 624 687 641 701 c 4
 663 719 736 747 738 747 c 4
 751 747 776 731 779 723 c 4x94
317 657 m 5
 314 625 222 567 167 567 c 4
 159 567 150 568 142 568 c 4
 127 568 112 573 104 579 c 5
 75 587 66 611 66 634 c 4
 66 640 65 646 65 651 c 4
 65 659 69 665 82 683 c 4
 93 696 110 704 138 717 c 4
 183 740 189 742 231 742 c 4x20
 268 741 274 736 293 714 c 4
 301 705 308 694 308 693 c 4
 309 688 317 672 317 659 c 6
 317 657 l 5
EndSplineSet
Validated: 1
EndChar

StartChar: AE
Encoding: 198 198 27
Width: 1145
VWidth: 916
Flags: W
HStem: -8 92<681.782 991.78> 284 128<920.156 971.257> 637 85<781.226 1054.62> 640 94<645 1021.84>
VStem: 302 136<32 102> 508 149<115.938 532.328>
LayerCount: 2
Fore
SplineSet
63 13 m 4xdc
 62 13 55 14 55 19 c 4
 55 21 55 22 56 24 c 4
 61 42 77 55 88 69 c 4
 130 129 177 190 212 251 c 4
 257 332 285 365 307 407 c 4
 325 439 361 498 361 499 c 4
 361 500 414 590 423 603 c 4
 441 627 466 656 481 673 c 4
 508 701 525 708 624 737 c 4
 628 738 632 738 637 738 c 4
 648 738 661 735 679 735 c 4
 680 735 681 735 682 735 c 4
 704 735 720 734 738 734 c 4
 746 734 754 734 762 734 c 4
 763 734 764 734 765 734 c 4xdc
 860 732 811 730 1032 722 c 6
 1092 720 l 5
 1092 720 1080 684 1060 664 c 4
 1043 646 1034 637 962 637 c 4xec
 920 637 867 640 818 640 c 4
 816 640 648 639 645 636 c 4
 645 636 645 634 645 632 c 4
 645 629 652 529 657 374 c 4
 660 281 671 133 677 115 c 4
 681 105 684 102 692 101 c 4
 697 100 712 99 725 96 c 4
 748 91 887 84 938 84 c 4
 957 84 1057 95 1058 95 c 4
 1069 95 1072 68 1072 68 c 4
 1072 54 1053 61 1040 38 c 4
 1032 24 1033 23 998 15 c 4
 986 12 972 10 968 8 c 4
 957 3 821 -8 793 -8 c 4
 787 -8 779 -6 773 -6 c 4
 760 -6 765 -10 743 -10 c 4
 725 -10 711 -7 679 -5 c 4
 550 1 573 20 545 20 c 4
 528 20 524 26 519 78 c 4
 510 165 508 197 508 261 c 4
 508 359 500 521 495 533 c 6
 491 542 l 5
 487 531 l 6
 477 503 447 464 442 449 c 4
 442 449 317 257 317 251 c 4
 317 247 306 228 279 188 c 4
 247 140 192 94 142 56 c 4
 128 45 114 37 97 29 c 4
 87 24 73 13 63 13 c 4xdc
1009 431 m 4
 1023 431 1040 408 1040 379 c 4
 1040 355 1037 353 1005 325 c 4
 981 303 908 284 888 284 c 4
 880 284 867 288 867 317 c 4
 867 366 898 380 962 412 c 4
 971 417 979 423 989 426 c 4
 995 428 1003 431 1009 431 c 4
412 148 m 4
 413 148 438 144 438 102 c 4
 438 74 422 66 390 49 c 4
 367 37 337 23 315 23 c 4
 307 23 302 27 302 32 c 4
 302 37 292 51 292 56 c 4
 292 83 410 148 412 148 c 4
EndSplineSet
Validated: 1
EndChar

StartChar: OE
Encoding: 338 338 28
Width: 1109
VWidth: 916
Flags: W
HStem: -3 113<361.011 516.219 612 908.9 909 977.739> 642 90<374.725 455.361 665.033 981.418>
VStem: 55 160<249.625 453.578> 579 163<265.03 489.472>
LayerCount: 2
Fore
SplineSet
660 -1 m 0
 658 -1 542 -4 518 -4 c 0
 485 -4 446 -3 411 -3 c 2
 381 -3 l 2
 371 -3 362 -4 356 -4 c 0
 353 -4 350 -3 348 -3 c 0
 252 2 141 84 96 152 c 0
 73 187 73 212 65 225 c 0
 56 243 55 288 55 299 c 2
 55 316 l 2
 55 404 70 530 237 642 c 0
 281 671 384 732 489 732 c 0
 497 732 504 732 512 732 c 0
 534 732 558 732 590 732 c 2
 592 732 l 2
 645 732 722 734 790 734 c 2
 797 734 l 2
 835 734 867 733 890 733 c 2
 961 733 l 2
 967 733 973 732 979 732 c 2
 986 732 l 2
 1023 732 1036 731 1036 718 c 0
 1036 713 1034 704 1022 695 c 0
 1009 684 1000 673 968 656 c 0
 944 643 924 638 906 638 c 0
 903 638 900 638 897 638 c 0
 887 639 868 640 848 640 c 2
 743 640 l 1
 711 639 665 641 665 636 c 0
 665 634 670 623 675 615 c 0
 692 592 717 539 729 501 c 0
 738 473 742 440 742 402 c 0
 742 186 612 122 612 109 c 0
 612 108 612 108 613 108 c 0
 617 105 646 105 684 105 c 0
 772 105 909 109 909 109 c 1
 936 109 l 2
 982 109 988 108 1007 99 c 0
 1026 89 1039 80 1039 69 c 2
 1039 68 l 2
 1039 40 933 -5 911 -5 c 2
 898 -5 l 1
 788 -2 713 -1 660 -1 c 0
579 378 m 0
 579 512 487 642 388 642 c 2
 383 642 l 1
 331 636 249 564 225 472 c 0
 216 440 215 403 215 377 c 2
 215 358 l 1
 216 309 221 193 358 133 c 0
 390 120 426 110 458 110 c 0
 469 110 481 111 490 114 c 0
 568 140 579 327 579 378 c 0
826 332 m 0
 826 360 910 441 966 441 c 2
 968 441 l 1
 1000 438 1056 406 1056 378 c 2
 1056 377 l 1
 1054 351 965 283 930 278 c 1
 922 278 l 2
 900 278 832 300 827 326 c 0
 827 328 826 330 826 332 c 0
EndSplineSet
Validated: 1
EndChar

StartChar: D
Encoding: 68 68 31
Width: 890
VWidth: 916
Flags: W
HStem: -1 80<297.552 554.827> 17 85<128.505 340.326> 293 128<146.207 235.581> 659 76<186.763 490.466>
VStem: 670 168<192.439 452.773>
LayerCount: 2
Fore
SplineSet
116 648 m 0xb8
 111 648 85 650 79 668 c 1
 83 722 436 735 440 735 c 0
 500 735 580 728 673 675 c 0
 768 622 838 507 838 348 c 0
 838 313 835 292 832 269 c 0
 819 181 815 160 723 92 c 0
 658 43 519 -1 376 -1 c 0xb8
 275 -1 94 17 91 17 c 0
 78 17 71 15 65 15 c 0
 59 15 55 16 55 20 c 0
 55 31 109 74 137 84 c 0
 173 97 186 102 200 102 c 0x78
 231 102 186 99 380 86 c 0
 381 86 462 79 472 79 c 0
 523 79 593 94 613 111 c 0
 655 143 670 231 670 308 c 0
 670 399 649 529 536 616 c 0
 484 658 325 659 298 659 c 0
 237 659 206 652 170 652 c 0
 166 652 160 652 160 652 c 0
 147 652 130 648 116 648 c 0xb8
173 293 m 0
 162 293 108 302 108 342 c 0
 108 374 127 393 188 421 c 0
 249 450 251 450 269 450 c 0
 282 450 284 449 293 441 c 0
 316 421 336 404 336 390 c 0
 336 386 307 362 293 348 c 0
 248 304 183 293 173 293 c 0
EndSplineSet
Validated: 1
EndChar

StartChar: Ccedilla
Encoding: 199 199 32
Width: 761
VWidth: 916
Flags: W
HStem: -42 150<359.334 418.592> 139 104<296.578 626.444> 166 96<511.798 672.339> 659 73<379.154 643.276>
VStem: 55 155<301.967 482.869>
LayerCount: 2
Fore
SplineSet
618 634 m 0xd8
 609 634 550 659 488 659 c 0
 484 659 424 659 352 628 c 0
 321 615 286 605 264 582 c 0
 241 558 210 503 210 388 c 0
 210 309 225 299 283 270 c 0
 311 256 412 243 457 243 c 0xd8
 531 243 662 262 664 262 c 0
 683 262 709 247 709 242 c 0
 709 224 671 178 642 166 c 0xb8
 602 149 476 139 389 139 c 0
 378 139 280 139 242 152 c 0
 193 169 135 194 106 229 c 0
 88 249 55 295 55 359 c 0
 55 381 63 424 69 455 c 0
 81 511 107 556 142 588 c 0
 183 625 302 732 540 732 c 0
 655 732 692 707 692 702 c 0
 692 689 650 634 618 634 c 0xd8
334 -42 m 4
 286 -42 280 2 280 8 c 4
 280 21 282 25 310 54 c 4
 333 77 395 108 432 108 c 4
 449 108 487 77 487 48 c 4
 487 47 487 45 487 44 c 4
 484 15 448 -3 422 -18 c 4
 409 -26 376 -42 334 -42 c 4
EndSplineSet
Validated: 1
EndChar

StartChar: E
Encoding: 69 69 34
Width: 838
VWidth: 916
Flags: W
HStem: 5 97<218 717.8> 5 88<631 733.269> 641 88<399.324 618.687 622.996 725.553>
VStem: 56 161<99.7976 308.908 323.193 389.693 398.59 627.554> 63 160<91.762 567.869>
LayerCount: 2
Fore
SplineSet
463 729 m 0x68
 523 729 598 729 666 729 c 0
 674 729 691 729 691 729 c 0
 704 729 723 729 738 729 c 0
 770 729 775 727 775 722 c 0
 775 713 709 640 698 640 c 0
 696 640 696 641 693 641 c 0
 680 641 685 634 620 634 c 0
 592 634 563 637 535 637 c 0
 469 637 426 635 398 634 c 0
 338 631 241 636 219 622 c 0
 215 620 214 617 214 611 c 0
 214 600 218 581 218 563 c 0
 218 553 216 559 216 545 c 0
 216 523 223 493 223 394 c 0x68
 223 302 217 217 217 125 c 0
 217 112 218 103 218 102 c 0
 220 100 252 99 280 99 c 0
 312 99 319 102 357 102 c 0
 357 102 362 102 368 102 c 0
 399 102 439 102 441 102 c 0xb0
 473 102 565 100 631 97 c 2
 755 92 l 1
 781 93 l 2
 782 93 l 0x70
 784 93 784 93 784 91 c 0
 784 83 771 64 765 55 c 0
 756 42 740 33 728 22 c 0
 722 17 714 5 709 5 c 0xb0
 708 5 595 10 573 10 c 0
 562 10 568 9 548 9 c 0
 540 9 517 9 471 9 c 0
 314 9 126 5 122 5 c 0
 117 5 110 6 110 6 c 0
 105 6 102 5 97 5 c 0
 56 5 56 50 56 54 c 0x70
 56 57 63 164 63 316 c 0
 63 470 55 589 55 592 c 0
 55 620 57 653 60 657 c 0
 65 665 101 707 112 710 c 0
 144 718 211 729 251 729 c 0
 257 729 264 729 270 729 c 0
 299 729 369 729 411 729 c 0
 429 729 445 729 463 729 c 0x68
512 338 m 0
 512 362 614 442 665 442 c 0
 689 442 747 413 747 386 c 0
 747 385 747 385 747 384 c 0
 744 365 721 355 707 343 c 0
 690 330 672 318 654 308 c 0
 636 298 619 283 599 283 c 0
 586 283 562 292 550 297 c 0
 535 303 512 329 512 338 c 0
EndSplineSet
Validated: 1
EndChar

StartChar: F
Encoding: 70 70 35
Width: 831
VWidth: 916
Flags: W
HStem: -6 24<83.9973 87.1822> 622 110<231.464 686>
VStem: 68 160<267.642 612.949> 88 155<54.5671 550.64>
LayerCount: 2
Fore
SplineSet
228 592 m 4xe0
 228 474.416421616 243 519.116911717 243 229 c 4
 243 119 241 78 233 66 c 4
 205 29 119 -6 102 -6 c 4
 92 -6 79 11 79 14 c 4
 79 16 80 17 83 18 c 4
 88 19 88 29 88 98 c 6
 88 151 l 6xd0
 88 228 88 364 84 380 c 4
 75 422 74 566 69 588 c 4
 69 589 68 591 68 592 c 4xe0
 68 605 88 619 88 627 c 4xd0
 88 637 55 642 55 652 c 4
 55 658 100 679 114 697 c 4
 143 731 168 732 182 732 c 6
 533 732 l 5
 758 724 778 721 778 693 c 4
 778 675 772 674 712 632 c 4
 704 627 686 618 686 618 c 5
 591 619 l 6
 523 620 463 622 413 622 c 4
 306 622 240 618 231 613 c 4
 229 612 228 605 228 592 c 4xe0
495 284 m 4
 495 318.408143001 609.598421417 408 637 408 c 4
 638 408 702 403 702 350 c 6
 702 341 l 6
 702 338 702 334 701 330 c 4
 698 320 668 288 657 280 c 4
 642 270 595 244 551 244 c 4
 532 244 530 250 522 255 c 4
 500 269 495 274 495 284 c 4
EndSplineSet
Validated: 524289
EndChar

StartChar: G
Encoding: 71 71 42
Width: 852
VWidth: 916
Flags: W
HStem: -5 114<341.57 649.508> 631 97<391.553 683.416>
VStem: 55 147<243.997 383.325>
LayerCount: 2
Fore
SplineSet
512 728 m 6
 585 728 l 6
 703 728 738 727 738 714 c 4
 738 701 696 645 684 637 c 4
 673 629 568 629 567 629 c 4
 566 629 476 631 468 631 c 4
 418 631 361 631 307 581 c 4
 284 559 266 545 238 487 c 4
 206 419 202 396 202 335 c 4
 202 309 205 291 207 283 c 4
 225 227 248 204 274 172 c 4
 326 115 441 109 491 109 c 4
 698 109 713 182 735 182 c 4
 746 182 788 153 788 143 c 4
 788 131 706 31 650 13 c 4
 645 11 543 -5 464 -5 c 4
 463 -5 221 -3 171 38 c 4
 129 71 55 148 55 261 c 4
 55 316 71 371 90 422 c 4
 113 482 113 500 200 582 c 4
 278 654 380 728 512 728 c 6
709 437 m 4
 717 438 723 439 728 439 c 4
 748 439 779 408 785 400 c 6
 798 386 l 5
 774 361 l 6
 752 338 733 332 720 319 c 4
 718 317 677 279 622 279 c 4
 559 279 551 335 551 338 c 4
 551 365 568 374 616 402 c 4
 638 413 689 437 709 437 c 4
EndSplineSet
Validated: 1
EndChar

StartChar: H
Encoding: 72 72 43
Width: 834
VWidth: 916
Flags: W
HStem: 294 128<362.044 452.271>
VStem: 57 161<131.633 689.984> 609 170<36.0301 469.611> 612 155<352.98 678>
LayerCount: 2
Fore
SplineSet
612 258 m 4xd0
 612 261 606 418 606 508 c 4
 606 535 606 563 607 598 c 6
 609 678 l 5xe0
 622 689 l 6
 663 725 747 728 759 732 c 5
 759 732 760 732 761 732 c 4
 766 732 768 724 768 702 c 4
 768 693 768 682 767 668 c 4xd0
 776 176 779 147 779 142 c 4
 779 90 776 58 771 49 c 4
 752 16 654 -1 648 -1 c 6
 648 -1 641 0 640 0 c 4
 626 0 623 -3 618 -3 c 4
 617 -3 609 -2 609 4 c 4xe0
 609 7 612 98 612 258 c 4xd0
57 281 m 6
 57 323 55 272 55 408 c 4
 55 514 57 671 60 679 c 4
 64 688 163 725 185 725 c 4
 191 725 200 716 205 708 c 6
 215 691 l 5
 212 530 l 6
 211 492 211 459 211 431 c 4
 211 334 215 391 215 313 c 4
 215 312 215 262 215 253 c 4
 215 252 218 185 218 129 c 6
 218 42 l 5
 208 32 l 5
 172 0 103 0 102 0 c 6
 96 0 l 6
 64 0 60 -2 60 -2 c 6
 58 -2 56 10 56 18 c 4
 56 21 57 124 57 248 c 6
 57 281 l 6
310 340 m 4
 310 385 389 422 448 422 c 4
 454 422 472 422 481 417 c 4
 494 409 518 384 518 379 c 4
 518 362 470 324 438 307 c 4
 416 296 381 294 377 294 c 6
 348 294 l 6
 313 294 318 311 312 328 c 4
 311 332 310 336 310 340 c 4
EndSplineSet
Validated: 1
EndChar

StartChar: I
Encoding: 73 73 44
Width: 335
VWidth: 916
Flags: W
HStem: -17 21G<80.5 93.5> 728 20G<250.5 259.5> 728 20G<250.5 259.5>
VStem: 73 185<42.2761 163.019 168.127 383.109> 82 176<43.0927 638>
LayerCount: 2
Fore
SplineSet
82 -17 m 4xa8
 79 -17 73 -16 73 8 c 4xb0
 73 23 77 41 77 41 c 5
 79 86 79 108 82 146 c 4
 82 151 85 584 88 628 c 6
 91 675 l 5
 104 683 l 6
 133 703 244 748 257 748 c 4xc8
 262 748 264 747 264 728 c 4
 264 717 264 702 264 691 c 4
 264 673 262 638 262 638 c 6
 261 581 258 316 258 311 c 4
 258 294 260 277 260 260 c 4
 260 218 256 233 256 165 c 4
 256 123 258 64 258 63 c 4xb0
 258 52 256 53 248 48 c 4
 228 37 175 17 162 12 c 4
 150 8 105 -17 82 -17 c 4xa8
EndSplineSet
Validated: 1
EndChar

StartChar: J
Encoding: 74 74 45
Width: 577
VWidth: 916
Flags: W
HStem: -12 150<142.764 201.166> 728 20G<490.5 499.5> 728 20G<490.5 499.5>
VStem: 313 185<60.3417 181.02 186.127 402.01> 322 177<61.0927 625.669> 331 173<291.997 638 638.025 675>
LayerCount: 2
Fore
SplineSet
118 -12 m 0x80
 70 -12 64 32 64 38 c 0
 64 51 65 55 93 84 c 0
 116 107 179 138 216 138 c 0
 233 138 270 107 270 78 c 0
 270 77 270 75 270 74 c 0
 267 45 233 28 207 13 c 0
 194 5 160 -12 118 -12 c 0x80
322 2 m 4xa8
 319 2 313 3 313 27 c 4xb0
 313 42 317 59 317 59 c 5
 319 104 319 126 322 164 c 4xa8
 322 169 326 584 329 628 c 2
 331 675 l 1
 343 683 l 2
 372 703 484 748 497 748 c 0xc4
 502 748 504 747 504 728 c 0
 504 717 504 702 504 691 c 0xa4
 504 673 503 638 503 638 c 2
 502 581 499 334 499 329 c 4xa8
 499 312 500 295 500 278 c 4
 500 236 496 251 496 183 c 4
 496 141 498 83 498 82 c 4xb0
 498 71 496 71 488 66 c 4
 468 55 415 36 402 31 c 4
 390 27 345 2 322 2 c 4xa8
EndSplineSet
Validated: 1
EndChar

StartChar: K
Encoding: 75 75 66
Width: 835
VWidth: 916
Flags: W
HStem: -6 186<610.334 724.759> 719 20G<186 212>
VStem: 58 164<28.9486 241.631> 60 170<317.002 679.441> 544 239<40.0618 121.249>
LayerCount: 2
Fore
SplineSet
70 -13 m 6xe8
 67 -13 l 6
 63 -13 55 -12 55 8 c 4
 55 25 58 51 58 69 c 4xe8
 62 205 62 249 62 297 c 4
 62 324 63 348 63 375 c 6
 63 411 l 6
 63 453 60 498 60 540 c 6
 60 558 l 5
 61 599 62 669 68 680 c 4
 80 700 167 736 205 739 c 5
 207 739 l 6
 217 739 218 731 223 722 c 4
 229 709 230 697 230 649 c 6
 230 599 l 6xd8
 230 551 226 505 226 458 c 4
 226 452 227 428 227 422 c 4
 228 387 229 372 229 334 c 4
 229 320 237 317 242 317 c 4
 253 318 442 468 535 558 c 4
 573 596 650 687 668 702 c 4
 674 707 682 718 700 723 c 4
 717 728 730 728 742 728 c 6
 753 728 l 5
 771 727 776 725 776 698 c 6
 776 692 l 6
 776 674 767 634 757 619 c 4
 734 583 681 546 654 523 c 4
 586 462 576 459 535 428 c 4
 493 396 466 373 404 335 c 4
 402 334 246 245 242 242 c 4
 231 234 232 234 229 184 c 4
 226 146 223 75 222 52 c 4
 220 18 82 -13 70 -13 c 6xe8
629 -6 m 5
 581 -1 544 10 544 68 c 4
 544 86 545 93 555 109 c 4
 580 144 624 180 698 180 c 6
 704 180 l 6
 742 180 783 129 783 87 c 6
 783 82 l 5
 778 13 665 -6 638 -6 c 6
 629 -6 l 5
EndSplineSet
Validated: 1
EndChar

StartChar: L
Encoding: 76 76 67
Width: 770
VWidth: 916
Flags: W
HStem: -1 106<235.256 655.847> 719 20G<194 198>
VStem: 55 166<249.625 673.943> 64 169<105 348.878>
LayerCount: 2
Fore
SplineSet
688 105 m 2xd0
 696 105 718 105 718 92 c 0
 718 79 670 8 600 0 c 0
 592 -1 560 -1 524 -1 c 2
 365 -1 l 2
 351 -1 326 -1 252 0 c 0
 128 2 111 2 88 10 c 2
 64 18 l 1xd0
 56 166 55 287 55 425 c 2
 55 468 l 2
 55 499 56 527 56 558 c 0
 56 596 58 674 58 674 c 1
 107 719 194 739 194 739 c 2
 202 739 203 734 211 724 c 0
 219 713 221 679 221 643 c 2
 221 582 l 2xe0
 221 577 224 250 233 105 c 1
 273 105 l 2
 319 105 363 106 411 106 c 0
 429 106 447 105 466 105 c 0
 504 104 541 104 569 104 c 0
 610 104 636 105 637 105 c 2
 688 105 l 2xd0
EndSplineSet
Validated: 1
EndChar

StartChar: M
Encoding: 77 77 68
Width: 916
VWidth: 916
Flags: W
HStem: -9 21G<707.5 715> 237 146<424.377 517.476> 262 130<467.84 545.614> 623 79<233.671 484.232> 640 81<455.044 704.922>
VStem: 60 172<30.7399 609.853> 697 165<33.5941 394.351> 705 157<121.611 639.993>
LayerCount: 2
Fore
SplineSet
60 396 m 2x95
 60 661 55 647 55 650 c 0
 55 665 79 685 87 687 c 0
 129 699 201 729 214 729 c 2
 215 729 l 2
 227 729 227 729 228 720 c 0
 228 715 231 705 232 704 c 0
 233 703 239 702 247 702 c 0x95
 251 702 621 716 700 721 c 0
 735 724 770 730 805 732 c 1
 848 732 l 1
 852 719 l 2
 855 709 858 700 858 669 c 2
 858 646 l 2
 858 622 859 590 860 563 c 0
 860 541 861 520 861 498 c 2
 861 448 l 2
 861 416 862 381 862 349 c 2
 862 78 l 2
 862 45 856 42 848 37 c 0
 776 -4 716 -9 714 -9 c 0
 701 -9 697 -9 697 66 c 0x8e
 697 70 704 367 705 445 c 1
 705 453 l 2
 705 480 704 505 704 532 c 2
 704 537 l 2
 704 552 705 567 705 582 c 2
 705 588 l 2
 705 596 706 603 706 611 c 0
 706 631 696 640 692 640 c 0x8d
 691 640 692 638 691 638 c 0
 640 633 629 628 573 628 c 0
 510 628 507 624 481 623 c 0
 473 623 444 622 436 622 c 0
 413 622 368 623 345 623 c 0
 344 623 246 623 233 610 c 0
 230 607 229 596 229 565 c 0
 229 563 232 403 232 391 c 2
 232 385 l 2
 232 381 229 66 226 52 c 0
 224 34 225 35 183 22 c 0
 182 22 94 -4 81 -4 c 0
 79 -4 77 -4 75 -3 c 2
 59 3 l 1
 60 185 l 1
 60 396 l 2x95
518 392 m 1xa4
 554.77702174 388.322297826 573 344.884107417 573 336 c 2
 573 334 l 1
 571 317 557 288 522 262 c 0xa4
 499 244 457 237 442 237 c 0
 441 237 372 238 372 284 c 2
 372 288 l 1
 373 296 379 307 390 325 c 0
 418 369 464 383 468 383 c 0xc4
 481 384 488 392 508 392 c 2
 518 392 l 1xa4
EndSplineSet
Validated: 524289
EndChar

StartChar: N
Encoding: 78 78 69
Width: 875
VWidth: 916
Flags: W
HStem: 576 156<653.969 780.397>
VStem: 75 159<60.1436 436.06>
LayerCount: 2
Fore
SplineSet
576 616 m 0
 576 672 672 732 721 732 c 2
 729 732 l 1
 764 731 784 724 802 702 c 0
 810 693 816 684 816 683 c 0
 817 678 822 655 822 642 c 2
 822 640 l 1
 820 614 746 576 738 576 c 0
 727 576 722 562 680 562 c 2
 670 562 l 2
 655 562 641 568 636 568 c 0
 608 568 576 594 576 616 c 0
66 6 m 0
 66 25 75 71 75 228 c 0
 75 256 74 284 74 312 c 0
 72 402 68 610 60 638 c 0
 59 641 55 645 55 647 c 0
 55 652 75 673 88 682 c 0
 96 688 184 729 232 729 c 2
 238 729 l 2
 243 729 247 728 248 728 c 0
 252 727 261 717 270 705 c 0
 293 673 375 565 376 563 c 0
 378 561 451 469 560 354 c 0
 562 352 700 203 812 87 c 0
 817 82 821 76 821 72 c 0
 821 64 807 60 785 47 c 0
 784 46 706 0 683 0 c 0
 678 0 676 1 673 4 c 2
 642 32 l 2
 554 114 285 414 262 442 c 0
 259 447 253 453 251 453 c 1
 251 443 l 2
 251 440 243 193 238 111 c 0
 237 102 234 92 234 83 c 0
 234 70 234 63 230 60 c 0
 168 8 75 5 73 5 c 0
 69 5 67 5 66 6 c 0
EndSplineSet
Validated: 1
EndChar

StartChar: O
Encoding: 79 79 70
Width: 868
VWidth: 916
Flags: W
HStem: -17 105<377.659 534.645>
VStem: 55 169<264.775 467.678> 661 154<233.464 444.676>
LayerCount: 2
Fore
SplineSet
372 748 m 4
 372 753 418 756 453 756 c 6
 462 756 l 6
 484 756 501 754 504 751 c 5
 504 748 l 6
 504 745 504 746 482 724 c 5
 490 724 l 6
 587 724 729 615 778 528 c 4
 801 490 815 422 815 372 c 4
 815 369 812 220 747 138 c 4
 725 110 697 86 668 66 c 4
 666 65 560 3 486 -8 c 4
 454 -13 422 -17 390 -17 c 4
 346.691997226 -17 149.975200486 -4.68218882798 70 214 c 4
 58 246 55 282 55 318 c 4
 55 327 56 336 56 345 c 4
 58 393 66 442 84 487 c 4
 142 635 221 680 336 728 c 4
 356 736 372 745 372 748 c 4
462 624 m 4
 445.596843837 631.290291628 394.650286831 642 356 642 c 4
 323 642 303 632 303 632 c 5
 297 624 224 538 224 392 c 4
 224 389 225 244 303 160 c 4
 322 138 380 88 493 88 c 4
 499 88 582 89 600 111 c 4
 601 113 661 210 661 312 c 6
 661 317 l 5
 659 395 655 446 582 537 c 4
 565 559 497 609 462 624 c 4
EndSplineSet
Validated: 524289
EndChar

StartChar: Q
Encoding: 81 81 71
Width: 835
VWidth: 916
Flags: W
HStem: -5 171<397.886 459.387> 234 116<315.244 557.431> 638 104<316.087 504.095>
VStem: 55 166<420.663 532.559> 629 153<391.115 525.568>
LayerCount: 2
Fore
SplineSet
422 742 m 4
 427 741 422 740 436 738 c 4
 624 714 693 680 746 614 c 4
 754 603 782 568 782 496 c 4
 782 488 781 481 781 473 c 4
 777 422 771 390 718 342 c 4
 614 249 486 237 408 235 c 4
 393 235 376 234 361 234 c 4
 323 234 201 234 118 308 c 4
 87 335 55 380 55 448 c 4
 55 476 58 524 128 605 c 4
 156 637 191 662 228 684 c 4
 260 703 367 742 416 742 c 4
 418 742 420 742 422 742 c 4
458 350 m 6
 463 350 l 6
 476 350 488 349 501 349 c 4
 529 349 596 359 618 387 c 4
 629 401 629 422 629 441 c 6
 629 450 l 6
 629 463 625 572 492 623 c 4
 473 631 454 637 432 638 c 5
 417 638 l 6
 390 638 367 634 335 625 c 5
 334 625 l 6
 333 625 333 627 333 628 c 4
 333 631 334 634 334 637 c 4
 334 638 334 638 333 638 c 4
 238 625 221 523 221 495 c 6
 221 493 l 6
 221 462 233 431 252 408 c 4
 270 388 333 350 458 350 c 6
538 100 m 4
 538 52 443 -5 387 -5 c 4
 372 -5 340 -4 317 18 c 4
 308 26 299 35 299 44 c 6
 299 45 l 5
 304 77 332 98 345 107 c 4
 350 111 367 122 380 132 c 4
 409 153 429 166 454 166 c 4
 471 166 538 147 538 100 c 4
EndSplineSet
Validated: 1
EndChar

StartChar: R
Encoding: 82 82 72
Width: 829
VWidth: 916
Flags: W
HStem: -8 168<603.637 715.767> 9 151<632.729 730.703> 605 97<131.588 171.779> 647 91<248.609 525.566>
VStem: 59 155<57.0318 226.427> 64 161.001<18.5953 211.056> 625 145<409.984 557.717>
LayerCount: 2
Fore
SplineSet
108 605 m 4x2a
 90 605 55 628 55 631 c 4
 55 640 96 671 188 702 c 4x2a
 229 715 354 738 469 738 c 4
 523 738 595 719 622 708 c 4
 685 676 733 647 760 581 c 4
 762 576 770 552 770 489 c 4
 770 435 757 400 678 347 c 4
 647 325 547 287 492 275 c 4
 446 264 449 260 407 252 c 4
 392 249 360 244 338 239 c 4
 266 225 243 231 221 223 c 4
 217 221 214 223 214 212 c 4x1a
 214 192 222 164 225 91 c 5
 225 59 l 6
 225 58.3235294118 225.000865052 57.6574394464 225.000865052 57.0009922654 c 4
 225.000865052 35.3382352941 224.058823529 24.1764705882 160 -3 c 4
 143 -9 127 -20 109 -20 c 6
 107 -20 l 6
 97 -20 91 -13 78 -8 c 6
 63 -3 l 5
 64 24 l 5
 64 32 l 6x96
 64 86 59 133 59 217 c 4
 59 227 59 235 60 238 c 4
 63 252 79 259 138 288 c 4
 175 306 163 305 313 316 c 4
 421 325 434 328 539 356 c 4
 607 374 625 400 625 453 c 4
 625 486 619 553 577 595 c 4
 535 637 443 647 380 647 c 4x9a
 334 647 202 640 143 618 c 4
 128 612 119 605 108 605 c 4x2a
553 105 m 4
 554 106 611 155 673 160 c 5
 674 160 l 6x82
 687 160 716 151 734 136 c 4
 752 121 775 87 775 78 c 4
 775 64 738 24 707 9 c 4x42
 698 4 647 -8 632 -8 c 4x82
 614 -8 552 16 547 28 c 4
 541 41 527 50 527 68 c 4
 527 80 530 85 553 105 c 4
EndSplineSet
Validated: 524289
EndChar

StartChar: S
Encoding: 83 83 73
Width: 890
VWidth: 916
Flags: W
HStem: -3 104<124.486 499.3> 286 141<437.764 526.857> 663 75<440.175 792.619>
VStem: 88 170<367.568 467.659>
LayerCount: 2
Fore
SplineSet
258 414 m 6
 258 407 l 6
 258 388 256 381 243 372 c 4
 230 363 176 329 132 329 c 4
 130 329 129 330 127 330 c 4
 122 331 92 343 92 343 c 5
 92 343 88 357 88 362 c 4
 88 365 88 367 88 370 c 4
 88 371 94 427 107 462 c 4
 115 480 136 521 192 573 c 4
 255 631 295 657 365 689 c 4
 407 708 474 738 634 738 c 6
 637 738 l 6
 779 738 822 717 822 709 c 4
 822 705 818 699 801 689 c 4
 784 679 775 670 764 664 c 4
 759 661 748 660 738 660 c 4
 727 660 716 661 706 661 c 6
 696 661 l 6
 669 661 642 663 615 663 c 6
 603 663 l 5
 561 662 522 665 482 655 c 4
 445 645 433 647 378 605 c 4
 332 570 306 535 279 482 c 4
 260 444 258 438 258 414 c 6
359 333 m 4
 359 373 475 427 484 427 c 4
 493 427 592 404 592 372 c 6
 592 354 581 349 573 340 c 4
 561 327 503 286 467 286 c 4
 454 286 374 301 365 318 c 4
 362 323 359 328 359 333 c 4
811 418 m 6
 822 418 l 6
 835 418 838 412 838 385 c 6
 838 362 l 5
 833 197 786 162 709 110 c 4
 692 99 619 51 556 33 c 4
 553 32 444 -3 302 -3 c 6
 249 -3 l 6
 171 -3 124 -5 123 -5 c 4
 103 -5 98 -4 70 11 c 4
 65 15 55 20 55 22 c 4
 55 30 99 63 123 78 c 4
 155 100 167 101 211 101 c 6
 228 101 l 6
 357 101 374 100 392 100 c 4
 407 100 526 101 590 133 c 4
 632 155 640 179 658 240 c 4
 676 296 668 350 683 359 c 4
 732 387 783 418 811 418 c 6
EndSplineSet
Validated: 1
EndChar

StartChar: T
Encoding: 84 84 74
Width: 902
VWidth: 916
Flags: W
HStem: -10 190<410.582 481.818> 611 126<142.418 769.285>
LayerCount: 2
Fore
SplineSet
548 737 m 4
 763 737 848 731 848 704 c 6
 848 702 l 6
 848 678 784 640 771 632 c 4
 753 623 726 614 668 611 c 4
 636 609 401 607 278 607 c 4
 220 607 116 610 78 625 c 5
 55 637 l 5
 69 655 l 6
 77 666 98 687 111 700 c 4
 129 719 133 726 142 730 c 4
 151 734 155 734 172 734 c 4
 204 734 334 734 463 735 c 4
 495 735 524 737 548 737 c 4
422 -10 m 4
 404 -10 311 6 311 62 c 4
 311 71 314 76 317 84 c 4
 330 116 364 134 421 165 c 4
 436 173 437 179 468 180 c 5
 487 180 l 5
 502 177 516 176 530 164 c 4
 538 158 559 130 561 122 c 4
 564 109 565 100 565 92 c 4
 565 86 563 83 560 77 c 4
 549 54 535 47 518 35 c 4
 504 24 454 -10 422 -10 c 4
EndSplineSet
Validated: 1
EndChar

StartChar: U
Encoding: 85 85 75
Width: 825
VWidth: 916
Flags: W
HStem: -13 104<355.343 498.118> 728 20G<690 726.5> 728 20G<690 726.5>
VStem: 55 174<337.325 648.378> 590 175<364.25 677.763> 598 175<225.045 685.944>
LayerCount: 2
Fore
SplineSet
379 -13 m 4xd4
 297 -13 195 24 160 56 c 4
 145 69 130 89 107 127 c 4
 83 169 77 267 66 339 c 4
 55 417 55 473 55 536 c 6
 55 570 l 6
 55 630 56 635 68 643 c 4
 108 671 166 711 198 711 c 4
 202 711 205 711 207 710 c 4
 216 702 208 706 221 684 c 6
 229 670 l 5
 229 518 229 232 293 150 c 4
 322 117 405 91 460 91 c 4
 478 91 494 93 512 98 c 4
 544 107 557 119 572 161 c 4
 591 213 598 248 598 361 c 4xd4
 598 430 595 520 590 599 c 4
 588 621 588 639 588 652 c 4
 588 664 587 673 588 678 c 4
 592 693 598 693 604 698 c 4
 605 699 668 746 712 748 c 5
 721 748 l 6
 732 748 736 745 748 732 c 6
 764 716 l 5
 765 576 l 6xd8
 767 460 773 355 773 353 c 4
 773 298 762 252 742 198 c 4
 734 179 725 156 717 145 c 4
 702 122 656 81 620 58 c 4
 544 10 412 -13 379 -13 c 4xd4
EndSplineSet
Validated: 1
EndChar

StartChar: V
Encoding: 86 86 76
Width: 853
VWidth: 916
Flags: W
HStem: 727 20G<198.5 207.5 737 744.5> 727 20G<198.5 207.5 737 744.5>
VStem: 37 175<209 642 642.007 706.813>
LayerCount: 2
Fore
SplineSet
38 115 m 2xa0
 38 238 l 2
 38 315 38 373 38 374 c 0
 38 391 37 412 37 434 c 2
 37 576 l 2
 37 595 36 614 36 642 c 2
 36 642 36 652 37 661 c 2
 37 674 l 2
 37 700 38 703 48 707 c 0
 68 715 127 735 167 744 c 0
 172 745 192 747 205 747 c 0
 210 747 214 746 214 692 c 0
 214 666 212 634 212 611 c 2
 212 601 l 2
 212 577 212 551 212 518 c 0
 212 485 211 440 211 398 c 2
 211 379 l 2
 211 334 212 288 212 243 c 2
 212 232 l 2
 212 224 212 217 212 209 c 1
 240 241 270 272 298 304 c 0
 358 372 420 440 480 508 c 0
 512 546 545 585 577 623 c 0
 599 650 625 690 642 704 c 0
 664 722 736 751 738 751 c 0
 751 751 778 736 781 728 c 0
 781 727 782 724 782 721 c 0
 782 713 779 700 766 682 c 0
 743 650 706 613 682 582 c 0
 659 554 622 513 618 509 c 0
 615 506 610 498 597 485 c 0
 524 408 466 347 242 87 c 0
 222 64 195 26 182 18 c 0
 181 17 129 -13 78 -13 c 2
 75 -13 l 2
 58 -13 60 -13 50 -3 c 0
 37 10 37 18 37 27 c 0
 37 28 38 47 38 115 c 2xa0
EndSplineSet
Validated: 1
EndChar

StartChar: W
Encoding: 87 87 77
Width: 936
VWidth: 916
Flags: W
HStem: -1 106<234.562 703.543> 307 151<399.032 543.021> 339 128<509.065 572.345> 727 20G<861 867> 727 20G<861 867>
VStem: 57 174<115 233 233.065 589.188> 372 210<339.915 432.62> 705 173<105.426 697>
LayerCount: 2
Fore
SplineSet
707 349 m 0x97
 707 387 702 625 702 628 c 2
 702 697 l 1
 720 709 l 2
 742 724 851 744 853 744 c 0
 857 745 860 747 862 747 c 0
 872 747 877 701 877 659 c 2
 877 633 l 1
 876 620 876 603 876 585 c 2
 876 544 l 2
 876 541 880 365 880 281 c 2
 880 280 l 2
 880 248 878 209 878 178 c 0
 878 169 879 160 879 154 c 0
 881 128 884 114 884 105 c 0
 884 86 866 96 866 87 c 0
 866 79 881 65 881 57 c 0
 881 51 874 48 856 37 c 0
 829 20 803 12 771 3 c 0
 763 0 735 -1 702 -1 c 0
 666 -1 622 0 590 0 c 2
 581 0 l 2
 568 0 558 -1 545 -1 c 0
 537 -1 526 -1 512 0 c 1
 493 0 l 2
 470 0 460 -2 441 -2 c 2
 418 -2 l 2
 391 -2 217 1 215 1 c 2
 212 1 l 2
 193 1 178 -1 158 -1 c 0
 149 -1 59 5 56 8 c 0
 55 9 55 11 55 15 c 0
 55 16 59 51 59 143 c 2
 59 233 l 1
 59 233 58 323 57 368 c 0
 57 388 55 407 55 427 c 2
 55 439 l 2
 55 493 58 538 58 598 c 0
 58 615 58 632 57 651 c 1
 57 652 l 2
 57 666 60 674 68 682 c 0
 96 710 127 709 180 722 c 1
 233 732 l 1
 238 692 l 2
 238.333333333 686.333333333 238.444444444 680.888888889 238.444444444 675.592592593 c 0
 238.444444444 665 238 655 238 645 c 2
 238 592 l 1
 237 532 232 473 231 413 c 1
 231 383 l 2
 231 324 232 273 233 196 c 2
 234 115 l 1
 270 113 l 1
 289 110 330 109 372 109 c 2
 387 109 l 2
 431 109 474 107 518 106 c 0
 558 106 617 105 655 105 c 0
 702 105 705 105 705 116 c 2
 705 203 l 1
 706 263 707 311 707 349 c 0x97
518 467 m 2xa7
 544 467 582 459 582 412 c 0
 582 411 582 358 564 339 c 0xa7
 559 334 499 307 442 307 c 0
 441 307 397 308 384 322 c 0
 374 333 372 345 372 358 c 0
 372 432 392 440 453 458 c 0xc7
 466 462 482 467 495 467 c 2
 518 467 l 2xa7
EndSplineSet
Validated: 524289
EndChar

StartChar: X
Encoding: 88 88 78
Width: 955
VWidth: 916
Flags: W
HStem: -13 176<136.196 239.752> 558 175<711.813 828.985> 722 20G<171 204>
LayerCount: 2
Fore
SplineSet
756 558 m 6xc0
 744 558 l 6
 734 558 725 568 702 581 c 4
 675 594 663 601 663 643 c 4
 663 658 667 670 675 682 c 4
 684 697 710 708 719 717 c 4
 729 728 750 732 773 732 c 4
 778 732 790 733 798 733 c 6
 802 733 l 5
 828 730 839 729 851 726 c 4
 883 718 881 718 895 686 c 4
 900 676 902 669 902 661 c 6
 902 655 l 5
 901 627 854 593 823 576 c 4
 794 559 769 558 756 558 c 6xc0
875 41 m 0
 867 41 801 -2 773 -2 c 0
 770 -2 767 -2 764 -1 c 0
 751 1 740 14 729 22 c 0
 715 34 705 40 687 59 c 0
 655 92 556 176 554 178 c 0
 526 200 452 269 432 288 c 0
 409 310 273 426 194 508 c 0
 171 532 73 649 72 650 c 0
 64 658 62 665 62 670 c 0
 62 674 64 677 64 677 c 1
 82 692 l 2
 83 693 145 737 197 742 c 1xa0
 211 733 242 706 308 628 c 0
 332 602 418 523 459 488 c 0
 513 441 762 206 765 203 c 0
 793 176 825 155 852 127 c 0
 870 108 902 75 902 65 c 0
 902 54 888 47 875 41 c 0
148 -13 m 0
 147 -13 55 -11 55 68 c 0
 55 83 86 116 128 138 c 0
 156 151 203 163 216 163 c 2
 217 163 l 2
 227 163 238 157 248 157 c 0
 252 157 264 150 274 142 c 0
 284 134 296 132 304 123 c 0
 312 113 313 101 313 88 c 0
 313 75 311 55 293 42 c 0
 282 34 266 25 260 20 c 0
 228 -3 171 -13 148 -13 c 0
EndSplineSet
Validated: 1
EndChar

StartChar: Y
Encoding: 89 89 79
Width: 880
VWidth: 916
Flags: W
HStem: 558 175<131.049 236.248> 728 20G<814 819.5> 728 20G<814 819.5>
LayerCount: 2
Fore
SplineSet
678 711 m 4x40
 680 711 811 748 817 748 c 4
 822 748 825 747 826 742 c 5
 826 739 l 6
 826 683 700 448 698 445 c 4
 655.269673045 364.994281445 544.426855708 173.960425344 524 128 c 4
 508.884726502 95.8800438169 489.942245579 28.3446315547 475 18 c 4
 462 10 346 -13 319 -13 c 4
 309 -13 304 -11 304 -6 c 4
 304 -1 308 5 313 14 c 4
 314 18 347 120 467 327 c 5
 581 539 597 574 634 664 c 4
 637 670 641 679 642 684 c 4
 644 701 654 705 678 711 c 4x40
212 733 m 6x80
 221 733 l 6
 239 733 261 732 284 698 c 4
 294 684 303 666 303 649 c 4
 303 603 216 558 148 558 c 4
 71 558 55 612 55 632 c 4
 55 678 144 733 212 733 c 6x80
EndSplineSet
Validated: 524289
EndChar

StartChar: Z
Encoding: 90 90 80
Width: 916
VWidth: 916
Flags: W
HStem: -18 116<415.23 795.64> 2 114<157.791 282.731 286.302 750.554> 26 84<798.158 830> 637 101<109.443 641>
LayerCount: 2
Fore
SplineSet
55 656 m 4x10
 55 673 115 738 170 738 c 4
 177 738 183 738 192 738 c 4
 196 738 201 738 207 738 c 5
 243 737 l 6
 290 737 315 737 347 737 c 4
 379 737 411 737 446 737 c 6
 574 738 l 6
 640 738 655 738 655 738 c 5
 718 738 l 6
 775 738 757 742 775 742 c 6
 792 742 l 6
 800 742 838 739 838 701 c 4
 838 655 779 600 742 568 c 4
 720 550 624 454 598 412 c 4
 586 392 567 377 517 354 c 4
 484 337 469 330 458 330 c 4
 446 330 430 339 417 342 c 4
 411 343 402 346 402 352 c 4
 402 357 406 363 428 389 c 4
 457 424 467 439 498 472 c 4
 584 570 641 614 641 637 c 5
 641 637 641 638 582 638 c 6
 568 638 l 6
 531 638 482 637 398 637 c 4
 300 636 246 636 229 636 c 6
 224 636 l 6
 210 636 180 636 152 637 c 5
 115 637 l 6
 87 637 77 652 64 652 c 6
 63 652 l 6
 58 652 55 652 55 656 c 4x10
687 98 m 6x90
 688 98 765 98 812 110 c 5
 820 110 816 98 845 75 c 4
 858 65 861 66 862 58 c 5
 862 57 l 6
 862 47 830 26 830 26 c 6x30
 829 26 796 1 782 -5 c 4
 764 -13 721 -18 679 -18 c 4x90
 607 -18 480 -3 412 -3 c 4
 389 -3 312 -5 285 -5 c 4
 236 -5 226 2 194 2 c 4
 168 2 144 -2 130 -2 c 4
 122 -2 78 17 78 22 c 4
 78 32 96 48 132 75 c 4
 178 108 179 116 202 116 c 4x50
 221 116 251 113 269 113 c 4
 291 113 339 115 381 115 c 6
 466 115 l 5
 540 111 593 98 650 98 c 6
 687 98 l 6x90
EndSplineSet
Validated: 1
EndChar

StartChar: P
Encoding: 80 80 81
Width: 790
VWidth: 916
Flags: W
HStem: -9 21G<125 159> 202 99<115.239 523.422> 211 90<230.179 541.844> 634 103<142.138 486.822>
VStem: 595 143<371.681 541.201>
LayerCount: 2
Fore
SplineSet
142 624 m 0xd8
 119 624 74 647 68 647 c 0
 67 647 68 647 68 648 c 0
 68 660 137 726 163 729 c 0
 220 734 260 737 298 737 c 0
 324 737 347 735 375 735 c 0
 438 735 550 735 668 652 c 0
 713 620 738 571 738 494 c 0
 738 468 733 439 728 407 c 0
 720 361 695 344 672 318 c 0
 625 267 529 222 486 211 c 0xb8
 485 211 447 202 393 202 c 2
 362 202 l 2
 339 202 316 203 293 203 c 2
 292 203 l 2
 256 203 221 202 185 202 c 2
 178 202 l 2
 158 202 134 200 114 200 c 0
 69 200 55 214 55 215 c 2
 55 216 l 2
 55 229 93 266 141 298 c 1
 219 300 264 302 324 302 c 2
 329 302 l 2
 349 302 370 301 390 301 c 2
 478 301 l 1
 483 300 488 299 493 299 c 0
 538 299 564 316 586 348 c 0
 591 356 595 392 595 427 c 0
 595 516 573 552 545 576 c 0
 482 631 414 634 322 634 c 0
 207 634 144 624 142 624 c 0xd8
188 151 m 0
 224 151 280 128 280 105 c 0
 280 79 256 50 212 24 c 0
 180 6 170 -6 148 -9 c 1
 141 -9 l 2
 109 -9 74 2 68 13 c 0
 62 23 57 32 57 42 c 0
 57 44 58 45 58 47 c 0
 63 73 88 89 107 107 c 0
 116 115 125 120 138 130 c 0
 161 148 170 151 188 151 c 0
EndSplineSet
Validated: 1
EndChar

